<svg width="80" height="80" viewBox="0 0 80 80" fill="none" xmlns="http://www.w3.org/2000/svg">
<path d="M65.9336 56.0525C65.9336 60.1955 64.2544 63.9467 61.5389 66.6621C58.8237 69.3773 55.0725 71.0571 50.9291 71.0571H20.7109V56.448H35.1056L35.3832 57.6035L38.3083 69.776L39.5749 69.4717L36.3093 55.8827L39.5747 42.2936L38.308 41.9893L35.3829 54.1619L35.1467 55.1453H20.7109V41.0477H50.9293C59.216 41.0477 65.9336 47.7656 65.9336 56.0525Z" fill="url(#paint0_linear_8_197)"/>
<path d="M56.4659 9.21684C56.4587 9.21417 56.4512 9.21097 56.4435 9.20777C56.4043 9.1923 56.3651 9.1771 56.3256 9.1619C56.3245 9.16137 56.3232 9.1611 56.3224 9.16084C55.7229 8.94644 55.0011 8.94324 54.9611 8.94324C54.96 8.94324 54.9595 8.94324 54.9595 8.94324H20.7109V9.5155H55.9075C56.0229 9.5155 56.1165 9.6091 56.1165 9.7251C56.1165 9.78297 56.0933 9.83497 56.0555 9.8731C56.0176 9.91124 55.9656 9.93417 55.9075 9.93417H22.1467C22.2957 10.1872 22.4411 10.4432 22.5816 10.7019H57.6171C57.7325 10.7019 57.8267 10.7958 57.8267 10.9115C57.8267 10.9691 57.8032 11.0214 57.7651 11.0595C57.7272 11.0971 57.6752 11.1206 57.6171 11.1206H22.8051C22.9437 11.3856 23.0781 11.6531 23.2085 11.9235H58.9429C59.0589 11.9235 59.1525 12.0171 59.1525 12.1326C59.1525 12.1904 59.1291 12.243 59.0915 12.2808C59.0536 12.3187 59.0011 12.3419 58.9432 12.3419H23.4053C23.5208 12.5926 23.6325 12.8456 23.7403 13.1008H59.8152C59.9307 13.1008 60.0248 13.1947 60.0248 13.3104C60.0248 13.368 60.0013 13.4203 59.9632 13.4584C59.9253 13.496 59.8733 13.5195 59.8152 13.5195H23.9131C24.0147 13.7707 24.1125 14.0238 24.2061 14.2787H60.5571C60.6725 14.2787 60.7661 14.3723 60.7661 14.4878C60.7661 14.5456 60.7427 14.5976 60.7051 14.6358C60.6672 14.6736 60.6147 14.6974 60.5571 14.6974H24.3565C24.4544 14.9774 24.548 15.2595 24.6368 15.5435H61.2811C61.3965 15.5435 61.4901 15.6374 61.4901 15.7531C61.4901 15.811 61.4669 15.863 61.4291 15.9011C61.3912 15.939 61.3392 15.9627 61.2811 15.9627H24.764C24.8419 16.2259 24.9155 16.4904 24.9851 16.7563H61.8133C61.9288 16.7563 62.0224 16.8499 62.0224 16.9659C62.0224 17.0235 61.9989 17.0758 61.9613 17.1139C61.9235 17.1515 61.8709 17.175 61.8133 17.175H25.0915C25.1573 17.4448 25.2189 17.7163 25.2771 17.9894H62.0811C62.1965 17.9894 62.2901 18.083 62.2901 18.1984C62.2901 18.2563 62.2669 18.3083 62.2291 18.3464C62.1912 18.3843 62.1392 18.408 62.0811 18.408H25.3621C25.408 18.6432 25.4512 18.8798 25.4909 19.1174H62.3136C62.4291 19.1174 62.5227 19.2112 62.5227 19.327C62.5227 19.3848 62.4995 19.4368 62.4616 19.475C62.4237 19.5128 62.3717 19.5366 62.3136 19.5366H25.5576C25.5992 19.8104 25.6368 20.0856 25.6696 20.3622H62.5112C62.6267 20.3622 62.7208 20.456 62.7208 20.5718C62.7208 20.6294 62.6973 20.6816 62.6592 20.7198C62.6213 20.7574 62.5693 20.7808 62.5112 20.7808H25.7163C25.7451 21.0552 25.7699 21.3302 25.7899 21.607H62.6157C62.7312 21.607 62.8253 21.7006 62.8253 21.8166C62.8253 21.8744 62.8019 21.9264 62.7637 21.9646C62.7259 22.0024 62.6739 22.0256 62.6157 22.0256H25.8173C25.8304 22.2515 25.8408 22.4787 25.8485 22.7062H62.5547C62.6701 22.7062 62.7643 22.7998 62.7643 22.9158C62.7643 22.9734 62.7408 23.0256 62.7027 23.0638C62.6651 23.1014 62.6123 23.1248 62.5547 23.1248H25.8589C25.8616 23.2872 25.8632 23.4504 25.8632 23.6134C25.8632 23.7104 25.8629 23.8072 25.8616 23.904H62.5547C62.6701 23.904 62.7643 23.9979 62.7643 24.1136C62.7643 24.1712 62.7408 24.224 62.7027 24.2616C62.6651 24.2995 62.6123 24.3232 62.5547 24.3232H25.8541C25.8475 24.584 25.8371 24.8438 25.8229 25.1024H62.5109C62.6264 25.1024 62.7205 25.196 62.7205 25.3115C62.7205 25.3694 62.6971 25.4219 62.6589 25.4598C62.6211 25.4976 62.5691 25.5208 62.5109 25.5208H25.7971C25.78 25.7704 25.7592 26.019 25.7344 26.2664H62.5512C62.6667 26.2664 62.7608 26.3603 62.7608 26.476C62.7608 26.5339 62.7373 26.5859 62.6992 26.624C62.6613 26.6619 62.6093 26.6856 62.5512 26.6856H25.6907C25.6616 26.9411 25.6291 27.195 25.5931 27.448H62.3067C62.4221 27.448 62.5163 27.5416 62.5163 27.6576C62.5163 27.7152 62.4928 27.7675 62.4547 27.8056C62.4171 27.8432 62.3643 27.8667 62.3067 27.8667H25.5304C25.4904 28.1179 25.4472 28.368 25.4005 28.6171H61.8533C61.9688 28.6171 62.0624 28.7107 62.0624 28.8262C62.0624 28.884 62.0389 28.936 62.0013 28.9742C61.9635 29.012 61.9109 29.0358 61.8533 29.0358H25.3184C25.2669 29.291 25.2109 29.5448 25.1517 29.7974H61.6083C61.7237 29.7974 61.8179 29.8912 61.8179 30.007C61.8179 30.0646 61.7944 30.1174 61.7563 30.155C61.7184 30.1928 61.6664 30.2166 61.6083 30.2166H25.0501C24.9867 30.4696 24.9189 30.7216 24.8483 30.9723H61.1256C61.2411 30.9723 61.3347 31.0662 61.3347 31.1819C61.3347 31.2395 61.3112 31.2923 61.2736 31.3299C61.2357 31.3678 61.1832 31.3915 61.1256 31.3915H24.7259C24.6496 31.647 24.5691 31.9008 24.4848 32.1531H60.4088C60.5243 32.1531 60.6184 32.247 60.6184 32.3627C60.6184 32.4206 60.5949 32.4726 60.5568 32.5107C60.5189 32.5486 60.4669 32.5718 60.4088 32.5718H24.3416C24.2536 32.8216 24.1624 33.0699 24.0672 33.3163H59.7165C59.8325 33.3163 59.9261 33.4102 59.9261 33.5259C59.9261 33.5835 59.9029 33.6363 59.8651 33.6739C59.8272 33.7118 59.7747 33.7355 59.7168 33.7355H23.9019C23.776 34.0467 23.6443 34.3547 23.5072 34.66H58.5651C58.6811 34.66 58.7747 34.7539 58.7747 34.8696C58.7747 34.9272 58.7515 34.98 58.7136 35.0176C58.6757 35.0555 58.6232 35.0792 58.5653 35.0792H23.3149C23.1949 35.3344 23.0715 35.5875 22.944 35.8382H57.1699C57.2853 35.8382 57.3795 35.9318 57.3795 36.0472C57.3795 36.1051 57.356 36.1576 57.3179 36.1955C57.2803 36.2331 57.2275 36.2566 57.1699 36.2566H22.7259C22.56 36.5691 22.388 36.8779 22.2104 37.183H53.9765C54.0925 37.183 54.1861 37.2768 54.1861 37.3926C54.1861 37.4502 54.1629 37.503 54.1251 37.5406C54.0872 37.5784 54.0347 37.6022 53.9768 37.6022H20.7109V38.1728H50.9293C55.0728 38.1728 58.824 36.4931 61.5392 33.7779C64.2544 31.0627 65.9339 27.3115 65.9339 23.168C65.9336 16.8352 62.0125 11.42 56.4659 9.21684ZM60.7013 33.776C60.2792 34.1982 59.8317 34.5958 59.3616 34.9651C61.7597 32.3059 63.2192 28.784 63.2192 24.9214V21.4112C63.2192 17.5486 61.7597 14.0264 59.3616 11.3672C62.8536 14.1144 65.0963 18.3787 65.0963 23.1662C65.0963 27.3096 63.4165 31.0608 60.7013 33.776Z" fill="url(#paint1_linear_8_197)"/>
<path d="M20.7248 56.4833C20.7045 56.4838 20.6733 56.4841 20.6328 56.4841C20.0579 56.4841 17.584 56.3953 16.6496 54.9033C16.1451 54.0972 16.1917 53.0955 16.7891 51.9265L16.7883 51.9259C17.1533 51.2134 17.2205 50.6633 16.9883 50.2907C16.4869 49.487 14.6845 49.3355 14.0923 49.3457L14.0664 47.9862C14.3784 47.9803 17.1411 47.9715 18.1403 49.5691C18.6445 50.3753 18.5968 51.3763 17.9992 52.5446L18 52.5451C17.6355 53.2587 17.5685 53.8094 17.8021 54.1819C18.308 54.9891 20.1067 55.1358 20.6968 55.1243L20.7248 56.4833Z" fill="url(#paint2_linear_8_197)"/>
<defs>
<linearGradient id="paint0_linear_8_197" x1="43.3223" y1="41.0477" x2="43.3223" y2="71.0571" gradientUnits="userSpaceOnUse">
<stop stop-color="#C0963F"/>
<stop offset="0.9999" stop-color="#E0BE70"/>
<stop offset="1" stop-color="#AA771C" stop-opacity="0.66"/>
</linearGradient>
<linearGradient id="paint1_linear_8_197" x1="43.3224" y1="8.94324" x2="43.3224" y2="38.1728" gradientUnits="userSpaceOnUse">
<stop stop-color="#C0963F"/>
<stop offset="0.9999" stop-color="#E0BE70"/>
<stop offset="1" stop-color="#AA771C" stop-opacity="0.66"/>
</linearGradient>
<linearGradient id="paint2_linear_8_197" x1="17.3956" y1="47.9855" x2="17.3956" y2="56.4841" gradientUnits="userSpaceOnUse">
<stop stop-color="#C0963F"/>
<stop offset="0.9999" stop-color="#E0BE70"/>
<stop offset="1" stop-color="#AA771C" stop-opacity="0.66"/>
</linearGradient>
</defs>
</svg>
